<?xml version="1.0" encoding="UTF-8"?><svg id="b" xmlns="http://www.w3.org/2000/svg" viewBox="0 0 2048 545.41"><path d="m0,0h2048v512H0V0ZM0,51.02v460.98h110.01v-132.07h-21.92s.04-122.31.04-122.31h4.86v-15.29h-38.68v-56.57h7.08v-15.29h-19.47s.02-43.57.02-43.57h6.08v-10.7h-29.21l.03-22.93S63.73,66.08,0,51.02" style="fill:#cb2026;"/><path d="m.51,275.86c-.17.13-.34.26-.51.38,0-.16,0-.31,0-.47.17.03.34.06.51.09Z" style="fill:#a6a3a3;"/><path d="m.5,129.46c-.17.13-.33.27-.5.4,0-.16,0-.31,0-.47.17.02.33.05.5.07Z" style="fill:#a6a3a3;"/><path d="m12.13,88.18c.06.33.13.65.19.98-.2-.03-.53-.01-.57-.11-.14-.37.01-.69.38-.87Z" style="fill:#a6a3a3;"/><line x1="42.55" y1="127.66" x2="42.55" y2="170.47" style="fill:none; stroke:#010101; stroke-miterlimit:10; stroke-width:6px;"/><polyline points="0 185.76 62 185.76 62 171.24 62 156.71" style="fill:none; stroke:#010101; stroke-miterlimit:10; stroke-width:6px;"/><line x1="0" y1="170.47" x2="62" y2="170.47" style="fill:none; stroke:#010101; stroke-miterlimit:10; stroke-width:6px;"/><line x1="55.66" y1="185.76" x2="54.7" y2="242.33" style="fill:none; stroke:#010101; stroke-miterlimit:10; stroke-width:6px;"/><line x1="0" y1="242.33" x2="93.6" y2="242.33" style="fill:none; stroke:#010101; stroke-miterlimit:10; stroke-width:6px;"/><polyline points="0 256.09 93.6 256.09 93.6 230.1" style="fill:none; stroke:#010101; stroke-miterlimit:10; stroke-width:6px;"/><line x1="88.74" y1="257.62" x2="88.74" y2="379.93" style="fill:none; stroke:#010101; stroke-miterlimit:10; stroke-width:6px;"/><path d="m-1.22,274.44s24.31,4.59,26.74,18.35l.37,87.15" style="fill:none; stroke:#010101; stroke-miterlimit:10; stroke-width:6px;"/><path d="m81.44,274.44s-26.74,6.12-31.61,21.4v67.27h31.61" style="fill:none; stroke:#010101; stroke-miterlimit:10; stroke-width:6px;"/><line x1="110.62" y1="363.11" x2="110.62" y2="512" style="fill:none; stroke:#010101; stroke-miterlimit:10; stroke-width:6px;"/><line x1="0" y1="379.93" x2="110.62" y2="379.93" style="fill:none; stroke:#010101; stroke-miterlimit:10; stroke-width:6px;"/><line x1="0" y1="397.47" x2="110.62" y2="397.47" style="fill:none; stroke:#010101; stroke-miterlimit:10; stroke-width:6px;"/><path d="m-1.22,415.09s19.45-1.53,29.17,19.88v110.44" style="fill:none; stroke:#010101; stroke-miterlimit:10; stroke-width:6px;"/><path d="m42.55,537.59v-104.15s2.15-18.35,26.74-18.35c0,0,19.45,0,26.74,16.82v89.42" style="fill:none; stroke:#010101; stroke-miterlimit:10; stroke-width:6px;"/><line x1="0" x2="0" y2="51.98" style="fill:none; stroke:#010101; stroke-miterlimit:10; stroke-width:5px;"/><line x1="0" y1="94.03" x2="21.88" y2="94.03" style="fill:none; stroke:#010101; stroke-miterlimit:10; stroke-width:6px;"/><line x1="19.45" y1="93.26" x2="19.45" y2="114.67" style="fill:none; stroke:#010101; stroke-miterlimit:10; stroke-width:6px;"/><path d="m-2.43,50.45s65.64,10.7,21.88,42.81" style="fill:none; stroke:#010101; stroke-miterlimit:10; stroke-width:6px;"/><path d="m9.72,32.11C9.72,34.64,5.37,36.69,0,36.69v-9.17c5.37,0,9.72,2.05,9.72,4.59Z" style="fill:#010101; stroke:#010101; stroke-miterlimit:10; stroke-width:5px;"/><path d="m2.43,51.98s21.88,19.88,2.43,41.28" style="fill:none; stroke:#010101; stroke-miterlimit:10; stroke-width:6px;"/><polyline points="48.62 111.61 48.62 126.9 0 126.9" style="fill:none; stroke:#010101; stroke-miterlimit:10; stroke-width:6px;"/><line x1="0" y1="116.2" x2="48.62" y2="116.2" style="fill:none; stroke:#010101; stroke-miterlimit:10; stroke-width:6px;"/><path d="m5.7,238.27v-34.52s.91-3.45,5.01-4.39c0,0,3.65-.31,5.47,4.08v34.83" style="fill:none; stroke:#010101; stroke-miterlimit:10; stroke-width:6px;"/><path d="m4.45,168.14v-27.63s.77-2.76,4.23-3.52c0,0,3.08-.25,4.61,3.26v27.88" style="fill:none; stroke:#010101; stroke-miterlimit:10; stroke-width:6px;"/><path d="m32.06,238.27v-34.52s.91-3.45,5.01-4.39c0,0,3.65-.31,5.47,4.08v34.83" style="fill:none; stroke:#010101; stroke-miterlimit:10; stroke-width:6px;"/><path d="m1627.48,402.94c-.08-6.74-.31-12.72.19-19.03,29.46-1.5,56.83,5.87,53.14-35.05-.61-62.87,1.27-125.85-.79-188.67-.97-27.53-33.14-18.9-51.7-20.61-1.13-4.21-1.29-12.59-.41-18.94,46.53-1.76,93.64-.4,140.32-.48,1.18,4.33,1.33,12.55.39,19.13-15.55,2.93-41.36-6.17-47.31,14.09-4.28,29.9-1.87,60.93-1.5,91.09,42.9,1.52,123.19.46,128.87-.27.07-29.89,2.55-60.51-1.46-90.17-5.33-20.33-31.34-12.72-46.96-14.25-1.33-3.95-1.55-11.19-.65-19.07,46.75-1.26,94.61-1.79,141.24.19.23,5.88.09,11.86.06,18.17-29.25,2.11-57.05-6.27-53.38,35.01,1.83,65.39-3.79,131.68,2.41,196.65,7.4,19.72,33.95,10.27,50.18,12.85,1.94,6.22.4,12.25.84,18.72-46.86,1.4-95.1,2.12-141.72-.25-.16-5.73-.15-11.72.02-18.03,15.68-3.36,41.45,6.2,47.73-14.12,4.55-32.49,1.62-66.16,1.64-98.94-4.8-.7-123.31-.77-128.98-.07-.04,32.43-2.54,65.58,1.36,97.79,4.98,20.97,31.39,12.79,47.2,14.85,1.17,4.11,1.34,12.39.45,18.97-46.95,1.73-94.09.44-141.2.45Z" style="fill:#fff;"/><path d="m1324.8,402.8c-5.3.77-58.71.89-65.32.2-15.02-37.41-24.49-77.92-46.73-111.97-18.21-26.96-54.97-19.97-82.98-19.66.47,33.49-3.68,68.27,2.41,101.24,8.71,17.68,33.49,8.45,49.26,11.04,1.35,4,1.55,12.96.44,19.4-41.09,1.7-137.91.49-144.34-.29-.69-6.04-.3-12.18-.25-17.91,26.93-5.69,55.76,9.65,53.35-33.22-1.11-65.33,2.32-131-1.48-196.17-5.04-22.99-33.8-13.08-50.82-15.19-2.4-6.64-1.03-12.66-.8-19.53,59.79,1.16,121.07-5.75,180.17,4.41,82.09,16.31,73.62,123.34-7.47,132.69,49.45,7.32,53.09,48.64,69.98,87.93,8.44,24.61,14.05,41.84,44.15,37.97.86,6.46.33,12.61.41,19.05Zm-195.07-153.79c49.97,5.64,119.1-4.42,104.27-71.04-11.9-42.78-69.44-33.75-104.02-34.43-.75,6.03-1.81,72.81-.25,105.47Z" style="fill:#fff;"/><path d="m538.68,271.18c-2,20.91-.5,101.87.13,108.93,35,.21,70.4,1.64,105.32-.73,21.72-3.85,15.9-32.28,17.98-48.39,4.41-1.05,22.22-1.19,28.35-.23.91,23.83.56,47.94.14,71.83-79.72,2.11-159.94.03-239.82.74-1.98-6.35-1.24-12.8-.54-19.1,16.94-3.78,45.76,6.76,48.37-18.53,2.87-64.48.28-129.3,1.04-193.88,2.56-36.3-22.09-31.78-49.13-32.03-.95-4.79-1.05-13.3-.23-19.07,78.26-1.27,157.08-.93,235.33-.12.95,23.05.67,46.44.11,69.52-9.21,1.25-19.46,1.36-28.68-.08-1.3-14.41,4.56-39.2-13.73-44.32-34.16-5.45-69.53-1.19-104.07-2.3-2.93,33.96-.52,69.2-.86,103.64,36.74-1.95,74.76,15.66,70.31-37.32,7.65-1.8,16.36-1.23,24.17-.33,1.62,31.94.5,96.84-.21,102.51-3.8,1.16-17.01,1.34-23.34.24-2.43-13.6,2.85-36-15.15-39.9-18.24-2.59-37.14-1.44-55.5-1.06Z" style="fill:#fff;"/><path d="m1014.47,383.58c.74,6.85.3,12.99.36,18.63-35.07,2.87-72.29.53-108.07,1.03-1.89-6.38-.36-12.57-.68-19.23,10.61-2.71,43.56,5.37,40.29-13-4.3-17.9-11.24-35.21-17.36-52.55-37.77-2.09-76.44-.6-114.5-.52-6.35,18.63-15.04,37.21-17.88,56.72,3.35,14.7,25.32,6.52,36.27,9.05,1.27,4.19,1.4,13.41.31,19.21-32.22.76-65.35,1.12-97.53-.14-.58-6.16-.31-12.3-.16-18.8,16.87-1.98,23.1-.09,29.09-18.36,29.45-81.55,58.17-163.4,87.94-244.83,4.96-.64,40.24-.69,45.92-.1,28.82,75.93,54.55,153.6,82.55,230.04,5.69,15.7,12.79,36.33,33.43,32.85Zm-94.19-89.37c-.95-4.78-45.94-136.17-48.6-142.1-16.93,46.47-33.3,94.62-48.83,141.97,4.69.6,90.28.72,97.43.13Z" style="fill:#fff;"/><path d="m393.36,129.41c.63,6.58.51,63.12-.1,67.5-3.97,1.11-19.71,1.32-26.23.31-1.82-11.93-1.55-24.53-7.21-35.65-19.34-43.19-102.86-29.59-105.13,18.74-1.44,15.38,4.97,30.71,17.32,40.05,39.04,29.62,105.78,25.97,128.94,75.27,39.81,111.6-110.14,136.57-184.57,97.44-.98-23.52-.48-47.18-.21-70.75,8.9-1.75,17.71-1.29,26.75-.21-.52,65.11,53.44,81.77,103.96,51.57,43.02-36.76,11.65-83.24-33.96-94.63-25.21-9.75-52.55-16.55-73.7-34.22-35.06-28.57-29.5-88.72,7.95-112.75,42.52-27.71,101.44-22.09,146.18-2.66Z" style="fill:#fff;"/><path d="m1569.19,205.93h-28c-1.56-61.36-17.5-78.74-80.28-66.7-63.16,16.92-68.88,94.92-65.83,149.54,1.77,41.46,22.04,88.18,67.07,95.9,58.88,10.86,79.59-8.49,80-67.33,9.54-1.57,20.19-.96,29.9-.25.33,26.57-1.49,53.71-3.3,80.25-119.97,37.08-230.1-.77-215.74-143.86,5.97-127.96,105.1-163.39,216.03-127.51,1.03,26.6.63,53.3.16,79.96Z" style="fill:#fff;"/></svg>