<?xml version="1.0" encoding="UTF-8"?><svg id="a" xmlns="http://www.w3.org/2000/svg" viewBox="0 0 512 512"><rect y="73.82" width="148.25" height="438.18" style="fill:#fff;"/><path d="m0,0h512v512H0V0Zm0,73.82v438.18c21.41,0,121.47,0,140.62,0v-107.77l7.63-2.4v-21.59h-61.04s1.51-88.76,1.51-88.76h9.94v-22.79l-30.52-1.2v-67.17l9.54-1.2v-16.79l-45.78-2.4.05-34.5S101.12,107.31,0,73.82" style="fill:#cb2026;"/><path d="m2.18,432.86c-.27.2-.53.4-.8.6,0-.25,0-.49,0-.74.27.05.53.09.8.14Z" style="fill:#a6a3a3;"/><path d="m2.17,203.13c-.26.21-.53.42-.79.63,0-.25,0-.49,0-.74.26.04.53.07.79.11Z" style="fill:#a6a3a3;"/><path d="m20.41,138.37c.1.51.2,1.02.3,1.54-.31-.05-.84-.02-.89-.17-.22-.58.02-1.08.59-1.37Z" style="fill:#a6a3a3;"/><line x1="68.14" y1="200.32" x2="68.14" y2="267.49" style="fill:none; stroke:#010101; stroke-miterlimit:10; stroke-width:15px;"/><polyline points="1.38 291.48 98.66 291.48 98.66 268.69 98.66 245.9" style="fill:none; stroke:#010101; stroke-miterlimit:10; stroke-width:15px;"/><line x1="1.38" y1="267.49" x2="98.66" y2="267.49" style="fill:none; stroke:#010101; stroke-miterlimit:10; stroke-width:15px;"/><line x1="88.72" y1="291.48" x2="87.22" y2="380.24" style="fill:none; stroke:#010101; stroke-miterlimit:10; stroke-width:15px;"/><line x1="1.38" y1="380.24" x2="148.25" y2="380.24" style="fill:none; stroke:#010101; stroke-miterlimit:10; stroke-width:15px;"/><polyline points="1.38 401.83 148.25 401.83 148.25 361.05" style="fill:none; stroke:#010101; stroke-miterlimit:10; stroke-width:15px;"/><line x1="140.62" y1="404.23" x2="140.62" y2="512" style="fill:none; stroke:#010101; stroke-miterlimit:10; stroke-width:15px;"/><path d="m-.52,430.62s38.15,7.2,41.96,28.79l.58,52.59" style="fill:none; stroke:#010101; stroke-miterlimit:10; stroke-width:15px;"/><path d="m129.18,430.62s-41.96,9.6-49.59,33.59v47.8" style="fill:none; stroke:#010101; stroke-miterlimit:10; stroke-width:15px;"/><line x1="1.38" x2="1.38" y2="81.57" style="fill:none; stroke:#010101; stroke-miterlimit:10; stroke-width:15px;"/><line x1="1.38" y1="147.54" x2="35.72" y2="147.54" style="fill:none; stroke:#010101; stroke-miterlimit:10; stroke-width:15px;"/><line x1="31.9" y1="146.34" x2="31.9" y2="179.92" style="fill:none; stroke:#010101; stroke-miterlimit:10; stroke-width:15px;"/><path d="m-2.43,79.17s103,16.79,34.33,67.17" style="fill:none; stroke:#010101; stroke-miterlimit:10; stroke-width:15px;"/><path d="m16.64,50.38c0,3.97-6.83,7.2-15.26,7.2v-7.2c0-3.97,0-7.2,0-7.2,8.43,0,15.26,3.22,15.26,7.2Z" style="fill:#010101; stroke:#010101; stroke-miterlimit:10; stroke-width:15px;"/><polyline points="77.68 175.13 77.68 199.12 1.38 199.12" style="fill:none; stroke:#010101; stroke-miterlimit:10; stroke-width:15px;"/><line x1="1.38" y1="182.32" x2="77.68" y2="182.32" style="fill:none; stroke:#010101; stroke-miterlimit:10; stroke-width:15px;"/><path d="m441.89,91.97c.83,8.73.68,83.73-.13,89.54-5.27,1.47-26.14,1.75-34.79.41-2.41-15.83-2.06-32.54-9.56-47.29-25.66-57.29-136.46-39.26-139.46,24.86-1.91,20.4,6.59,40.74,22.98,53.13,51.79,39.29,140.32,34.46,171.05,99.85,52.81,148.04-146.11,181.17-244.84,129.26-1.31-31.2-.63-62.58-.28-93.85,11.8-2.32,23.5-1.71,35.48-.28-.69,86.37,70.89,108.47,137.9,68.41,57.07-48.77,15.45-110.43-45.06-125.53-33.44-12.94-69.72-21.96-97.76-45.4-46.51-37.9-39.14-117.7,10.54-149.57,56.4-36.76,134.57-29.3,193.92-3.53Z" style="fill:#fff;"/></svg>