<?xml version="1.0" encoding="UTF-8"?><svg id="a" xmlns="http://www.w3.org/2000/svg" viewBox="0 0 512 512"><rect width="512" height="512" style="fill:#fbcccc;"/><path d="m58.18,511.99c-3.11-3.98,7.97-41.95,11.15-53.42s17.02-33.46,30.8-49.16c2.33-1.88,2.98-3.38,5.03-4.49,4.59-2.48,8.67-5.94,13.74-7.48,9.07-2.76,16.52-8.88,25.44-11.95,9.2-3.2,18.77-5.28,27.51-9.76,11.12-3.2,21.03-9.15,21.52-21.97.04-7.85,9.66-25.53,1.27-30.59-3.62-1.02-5.26-3.81-7.34-6.51-8.69-13.73-16.13-28.11-26.74-40.6-9.7-12.88-21.28-24.57-28.66-39.01-19.71-26.03-4.49-57.3,10.65-81.46,13.22-18.43,23.75-43.87,48.86-47.16,2.27-.4,3.16-1.26,3.62-3.24,2.45-30.49,36.4-38.39,61.76-33.3,47.06,8.87,122.41,42.24,121.91,98.23-.16,17.88-10.61,32.89-17.51,48.67-.64,1.71-1.28,3.29-.68,5.26,5.04,23.15-4.58,47.21-13.02,68.48-2.9,5.95-3.72,12.81-8.65,17.99-3.7,3.89-3.92,9.8-6.1,14.66-5.27,14.4-24.81,2.72-25.61,20.37.58,6.67-1.45,21.89,5.85,24.43,30.43,7.24,59.18,19.16,88.17,30.84,3.86,1.56,7.45,4.17,11.24,6.19,2.63,1.4,32.01,38.53,32.6,40.41,5.28,17.02,13.38,56.94,7.04,64.58" style="fill:#c66;"/></svg>