<?xml version="1.0" encoding="UTF-8"?><svg xmlns="http://www.w3.org/2000/svg" viewBox="0 0 512 545.41"><g id="a"><path d="m0,0h512v512H0V0Zm0,51.02v460.98h110.01v-132.07h-21.92s.04-122.31.04-122.31h4.86v-15.29h-38.68v-56.57h7.08v-15.29h-19.47s.02-43.57.02-43.57h6.08v-10.7h-29.21l.03-22.93S63.73,66.08,0,51.02" style="fill:#cb2026;"/></g><g id="b"><path d="m.51,275.86c-.17.13-.34.26-.51.38,0-.16,0-.31,0-.47.17.03.34.06.51.09Z" style="fill:#a6a3a3;"/><path d="m.5,129.46c-.17.13-.33.27-.5.4,0-.16,0-.31,0-.47.17.02.33.05.5.07Z" style="fill:#a6a3a3;"/><path d="m12.13,88.18c.06.33.13.65.19.98-.2-.03-.53-.01-.57-.11-.14-.37.01-.69.38-.87Z" style="fill:#a6a3a3;"/><line x1="42.55" y1="127.66" x2="42.55" y2="170.47" style="fill:none; stroke:#010101; stroke-miterlimit:10; stroke-width:6px;"/><polyline points="0 185.76 62 185.76 62 171.24 62 156.71" style="fill:none; stroke:#010101; stroke-miterlimit:10; stroke-width:6px;"/><line y1="170.47" x2="62" y2="170.47" style="fill:none; stroke:#010101; stroke-miterlimit:10; stroke-width:6px;"/><line x1="55.66" y1="185.76" x2="54.7" y2="242.33" style="fill:none; stroke:#010101; stroke-miterlimit:10; stroke-width:6px;"/><line y1="242.33" x2="93.6" y2="242.33" style="fill:none; stroke:#010101; stroke-miterlimit:10; stroke-width:6px;"/><polyline points="0 256.09 93.6 256.09 93.6 230.1" style="fill:none; stroke:#010101; stroke-miterlimit:10; stroke-width:6px;"/><line x1="88.74" y1="257.62" x2="88.74" y2="379.93" style="fill:none; stroke:#010101; stroke-miterlimit:10; stroke-width:6px;"/><path d="m-1.22,274.44s24.31,4.59,26.74,18.35l.37,87.15" style="fill:none; stroke:#010101; stroke-miterlimit:10; stroke-width:6px;"/><path d="m81.44,274.44s-26.74,6.12-31.61,21.4v67.27h31.61" style="fill:none; stroke:#010101; stroke-miterlimit:10; stroke-width:6px;"/><line x1="110.62" y1="363.11" x2="110.62" y2="512" style="fill:none; stroke:#010101; stroke-miterlimit:10; stroke-width:6px;"/><line x1="0" y1="379.93" x2="110.62" y2="379.93" style="fill:none; stroke:#010101; stroke-miterlimit:10; stroke-width:6px;"/><line x1="0" y1="397.47" x2="110.62" y2="397.47" style="fill:none; stroke:#010101; stroke-miterlimit:10; stroke-width:6px;"/><path d="m-1.22,415.09s19.45-1.53,29.17,19.88v110.44" style="fill:none; stroke:#010101; stroke-miterlimit:10; stroke-width:6px;"/><path d="m42.55,537.59v-104.15s2.15-18.35,26.74-18.35c0,0,19.45,0,26.74,16.82v89.42" style="fill:none; stroke:#010101; stroke-miterlimit:10; stroke-width:6px;"/><line y2="51.98" style="fill:none; stroke:#010101; stroke-miterlimit:10; stroke-width:5px;"/><line y1="94.03" x2="21.88" y2="94.03" style="fill:none; stroke:#010101; stroke-miterlimit:10; stroke-width:6px;"/><line x1="19.45" y1="93.26" x2="19.45" y2="114.67" style="fill:none; stroke:#010101; stroke-miterlimit:10; stroke-width:6px;"/><path d="m-2.43,50.45s65.64,10.7,21.88,42.81" style="fill:none; stroke:#010101; stroke-miterlimit:10; stroke-width:6px;"/><path d="m9.72,32.11C9.72,34.64,5.37,36.69,0,36.69v-9.17c5.37,0,9.72,2.05,9.72,4.59Z" style="fill:#010101; stroke:#010101; stroke-miterlimit:10; stroke-width:5px;"/><path d="m2.43,51.98s21.88,19.88,2.43,41.28" style="fill:none; stroke:#010101; stroke-miterlimit:10; stroke-width:6px;"/><polyline points="48.62 111.61 48.62 126.9 0 126.9" style="fill:none; stroke:#010101; stroke-miterlimit:10; stroke-width:6px;"/><line y1="116.2" x2="48.62" y2="116.2" style="fill:none; stroke:#010101; stroke-miterlimit:10; stroke-width:6px;"/><path d="m5.7,238.27v-34.52s.91-3.45,5.01-4.39c0,0,3.65-.31,5.47,4.08v34.83" style="fill:none; stroke:#010101; stroke-miterlimit:10; stroke-width:6px;"/><path d="m4.45,168.14v-27.63s.77-2.76,4.23-3.52c0,0,3.08-.25,4.61,3.26v27.88" style="fill:none; stroke:#010101; stroke-miterlimit:10; stroke-width:6px;"/><path d="m32.06,238.27v-34.52s.91-3.45,5.01-4.39c0,0,3.65-.31,5.47,4.08v34.83" style="fill:none; stroke:#010101; stroke-miterlimit:10; stroke-width:6px;"/></g><g id="c"><path d="m336.76,468.16c-.03-2.73-.13-5.15.08-7.7,11.92-.61,23,2.38,21.5-14.19-.25-25.44.51-50.93-.32-76.36-.39-11.14-13.41-7.65-20.92-8.34-.46-1.7-.52-5.09-.17-7.67,18.83-.71,37.9-.16,56.79-.19.48,1.75.54,5.08.16,7.74-6.29,1.18-16.74-2.5-19.15,5.7-1.73,12.1-.76,24.66-.61,36.87,17.36.62,49.86.19,52.16-.11.03-12.1,1.03-24.49-.59-36.49-2.16-8.23-12.68-5.15-19-5.77-.54-1.6-.63-4.53-.26-7.72,18.92-.51,38.29-.73,57.16.08.09,2.38.03,4.8.03,7.36-11.84.85-23.09-2.54-21.6,14.17.74,26.46-1.53,53.29.97,79.58,3,7.98,13.74,4.15,20.31,5.2.79,2.52.16,4.96.34,7.57-18.97.57-38.49.86-57.35-.1-.07-2.32-.06-4.74,0-7.3,6.34-1.36,16.77,2.51,19.32-5.71,1.84-13.15.66-26.78.66-40.04-1.94-.28-49.9-.31-52.2-.03-.02,13.13-1.03,26.54.55,39.58,2.01,8.49,12.7,5.18,19.1,6.01.47,1.66.54,5.01.18,7.68-19,.7-38.08.18-57.14.18Z" style="fill:#fff;"/><path d="m459.37,305.96c-2.14.31-23.76.36-26.44.08-6.08-15.14-9.91-31.54-18.91-45.32-7.37-10.91-22.25-8.08-33.58-7.96.19,13.55-1.49,27.63.98,40.97,3.52,7.15,13.55,3.42,19.94,4.47.55,1.62.63,5.25.18,7.85-16.63.69-55.81.2-58.41-.12-.28-2.45-.12-4.93-.1-7.25,10.9-2.3,22.56,3.91,21.59-13.44-.45-26.44.94-53.01-.6-79.39-2.04-9.3-13.68-5.29-20.57-6.15-.97-2.69-.42-5.12-.32-7.91,24.2.47,49-2.33,72.91,1.78,33.22,6.6,29.79,49.92-3.02,53.7,20.01,2.96,21.49,19.69,28.32,35.59,3.42,9.96,5.69,16.93,17.87,15.37.35,2.61.13,5.1.17,7.71Zm-78.95-62.24c20.22,2.28,48.2-1.79,42.2-28.75-4.82-17.31-28.1-13.66-42.1-13.93-.3,2.44-.73,29.47-.1,42.68Z" style="fill:#fff;"/><path d="m374.12,90.67c-.81,8.46-.2,41.23.05,44.08,14.16.08,28.49.66,42.62-.29,8.79-1.56,6.44-13.06,7.27-19.58,1.79-.43,8.99-.48,11.47-.09.37,9.64.23,19.4.06,29.07-32.26.85-64.73.01-97.06.3-.8-2.57-.5-5.18-.22-7.73,6.86-1.53,18.52,2.74,19.58-7.5,1.16-26.09.11-52.33.42-78.47,1.04-14.69-8.94-12.86-19.88-12.96-.39-1.94-.42-5.38-.09-7.72,31.67-.51,63.57-.38,95.24-.05.38,9.33.27,18.79.05,28.13-3.73.5-7.88.55-11.61-.03-.53-5.83,1.84-15.87-5.56-17.94-13.82-2.21-28.14-.48-42.12-.93-1.19,13.74-.21,28.01-.35,41.94,14.87-.79,30.25,6.34,28.46-15.1,3.1-.73,6.62-.5,9.78-.13.65,12.93.2,39.19-.09,41.49-1.54.47-6.88.54-9.45.1-.98-5.5,1.15-14.57-6.13-16.15-7.38-1.05-15.03-.58-22.46-.43Z" style="fill:#fff;"/><path d="m333.78,298.18c.3,2.77.12,5.26.15,7.54-14.19,1.16-29.26.21-43.74.42-.76-2.58-.15-5.09-.27-7.78,4.3-1.1,17.63,2.17,16.31-5.26-1.74-7.24-4.55-14.25-7.03-21.27-15.29-.85-30.94-.24-46.34-.21-2.57,7.54-6.08,15.06-7.24,22.96,1.36,5.95,10.25,2.64,14.68,3.66.52,1.7.57,5.43.13,7.78-13.04.31-26.45.45-39.47-.05-.23-2.49-.13-4.98-.07-7.61,6.83-.8,9.35-.04,11.77-7.43,11.92-33,23.54-66.13,35.59-99.08,2.01-.26,16.29-.28,18.59-.04,11.67,30.73,22.07,62.16,33.41,93.1,2.3,6.35,5.18,14.7,13.53,13.3Zm-38.12-36.17c-.38-1.94-18.59-55.11-19.67-57.51-6.85,18.81-13.48,38.29-19.76,57.46,1.9.24,36.54.29,39.43.05Z" style="fill:#fff;"/><path d="m315.31,33.3c.25,2.66.21,25.54-.04,27.32-1.61.45-7.98.53-10.61.13-.74-4.83-.63-9.93-2.92-14.43-7.83-17.48-41.63-11.98-42.55,7.58-.58,6.22,2.01,12.43,7.01,16.21,15.8,11.99,42.81,10.51,52.18,30.46,16.11,45.17-44.58,55.27-74.69,39.43-.4-9.52-.19-19.09-.09-28.63,3.6-.71,7.17-.52,10.83-.09-.21,26.35,21.63,33.09,42.07,20.87,17.41-14.88,4.71-33.69-13.75-38.3-10.2-3.95-21.27-6.7-29.83-13.85-14.19-11.56-11.94-35.91,3.22-45.63,17.21-11.21,41.05-8.94,59.16-1.08Z" style="fill:#fff;"/><path d="m313.17,388.43h-11.33c-.63-24.83-7.08-31.87-32.49-27-25.56,6.85-27.88,38.41-26.64,60.52.72,16.78,8.92,35.69,27.14,38.81,23.83,4.39,32.21-3.43,32.37-27.25,3.86-.64,8.17-.39,12.1-.1.13,10.75-.6,21.74-1.34,32.48-48.55,15.01-93.12-.31-87.31-58.22,2.42-51.79,42.54-66.13,87.43-51.6.42,10.77.26,21.57.06,32.36Z" style="fill:#fff;"/></g></svg>