<?xml version="1.0" encoding="UTF-8"?>
<svg xmlns="http://www.w3.org/2000/svg" style="display: none;">
  <!-- FontAwesome 6.2.1 - solid.svg -->
  <symbol id="phone" viewBox="0 0 512 512">
    <path d="M164.9 24.6c-7.7-18.6-28-28.5-47.4-23.2l-88 24C12.1 30.2 0 46 0 64C0 311.4 200.6 512 448 512c18 0 33.8-12.1 38.6-29.5l24-88c5.3-19.4-4.6-39.7-23.2-47.4l-96-40c-16.3-6.8-35.2-2.1-46.3 11.6L304.7 368C234.3 334.7 177.3 277.7 144 207.3L193.3 167c13.7-11.2 18.4-30 11.6-46.3l-40-96z"></path>
  </symbol>
  <symbol id="homepage" viewBox="0 0 576 512"><!-- solid.svg#house -->
    <path d="M575.8 255.5c0 18-15 32.1-32 32.1h-32l.7 160.2c0 2.7-.2 5.4-.5 8.1V472c0 22.1-17.9 40-40 40H456c-1.1 0-2.2 0-3.3-.1c-1.4 .1-2.8 .1-4.2 .1H416 392c-22.1 0-40-17.9-40-40V448 384c0-17.7-14.3-32-32-32H256c-17.7 0-32 14.3-32 32v64 24c0 22.1-17.9 40-40 40H160 128.1c-1.5 0-3-.1-4.5-.2c-1.2 .1-2.4 .2-3.6 .2H104c-22.1 0-40-17.9-40-40V360c0-.9 0-1.9 .1-2.8V287.6H32c-18 0-32-14-32-32.1c0-9 3-17 10-24L266.4 8c7-7 15-8 22-8s15 2 21 7L564.8 231.5c8 7 12 15 11 24z"></path>
  </symbol>
  <symbol id="pure" viewBox="0 0 576 512"><!-- solid.svg#open-book -->
    <path d="M249.6 471.5c10.8 3.8 22.4-4.1 22.4-15.5V78.6c0-4.2-1.6-8.4-5-11C247.4 52 202.4 32 144 32C87.5 32 35.1 48.6 9 59.9c-5.6 2.4-9 8-9 14V454.1c0 11.9 12.8 20.2 24.1 16.5C55.6 460.1 105.5 448 144 448c33.9 0 79 14 105.6 23.5zm76.8 0C353 462 398.1 448 432 448c38.5 0 88.4 12.1 119.9 22.6c11.3 3.8 24.1-4.6 24.1-16.5V73.9c0-6.1-3.4-11.6-9-14C540.9 48.6 488.5 32 432 32c-58.4 0-103.4 20-123 35.6c-3.3 2.6-5 6.8-5 11V456c0 11.4 11.7 19.3 22.4 15.5z"></path>
  </symbol>
  <symbol id="email" viewBox="0 0 512 512"><!-- solid.svg#envelope -->
    <path d="M48 64C21.5 64 0 85.5 0 112c0 15.1 7.1 29.3 19.2 38.4L236.8 313.6c11.4 8.5 27 8.5 38.4 0L492.8 150.4c12.1-9.1 19.2-23.3 19.2-38.4c0-26.5-21.5-48-48-48H48zM0 176V384c0 35.3 28.7 64 64 64H448c35.3 0 64-28.7 64-64V176L294.4 339.2c-22.8 17.1-54 17.1-76.8 0L0 176z"></path>
  </symbol>
  <symbol id="room" viewBox="0 0 576 512"><!-- solid.svg#map-location-dot -->
    <path d="M408 120c0 54.6-73.1 151.9-105.2 192c-7.7 9.6-22 9.6-29.6 0C241.1 271.9 168 174.6 168 120C168 53.7 221.7 0 288 0s120 53.7 120 120zm8 80.4c3.5-6.9 6.7-13.8 9.6-20.6c.5-1.2 1-2.5 1.5-3.7l116-46.4C558.9 123.4 576 135 576 152V422.8c0 9.8-6 18.6-15.1 22.3L416 503V200.4zM137.6 138.3c2.4 14.1 7.2 28.3 12.8 41.5c2.9 6.8 6.1 13.7 9.6 20.6V451.8L32.9 502.7C17.1 509 0 497.4 0 480.4V209.6c0-9.8 6-18.6 15.1-22.3l122.6-49zM327.8 332c13.9-17.4 35.7-45.7 56.2-77V504.3L192 449.4V255c20.5 31.3 42.3 59.6 56.2 77c20.5 25.6 59.1 25.6 79.6 0zM288 152c22.1 0 40-17.9 40-40s-17.9-40-40-40s-40 17.9-40 40s17.9 40 40 40z"></path>
  </symbol>
  <!-- FontAwesome 6.2.1 - brand.svg -->
  <symbol id="linkedin" viewBox="0 0 448 512">
    <path d="M416 32H31.9C14.3 32 0 46.5 0 64.3v383.4C0 465.5 14.3 480 31.9 480H416c17.6 0 32-14.5 32-32.3V64.3c0-17.8-14.4-32.3-32-32.3zM135.4 416H69V202.2h66.5V416zm-33.2-243c-21.3 0-38.5-17.3-38.5-38.5S80.9 96 102.2 96c21.2 0 38.5 17.3 38.5 38.5 0 21.3-17.2 38.5-38.5 38.5zm282.1 243h-66.4V312c0-24.8-.5-56.7-34.5-56.7-34.6 0-39.9 27-39.9 54.9V416h-66.4V202.2h63.7v29.2h.9c8.9-16.8 30.6-34.5 62.9-34.5 67.2 0 79.7 44.3 79.7 101.9V416z"></path>
  </symbol>
  <symbol id="twitter" viewBox="0 0 512 512">
    <path d="M459.37 151.716c.325 4.548.325 9.097.325 13.645 0 138.72-105.583 298.558-298.558 298.558-59.452 0-114.68-17.219-161.137-47.106 8.447.974 16.568 1.299 25.34 1.299 49.055 0 94.213-16.568 130.274-44.832-46.132-.975-84.792-31.188-98.112-72.772 6.498.974 12.995 1.624 19.818 1.624 9.421 0 18.843-1.3 27.614-3.573-48.081-9.747-84.143-51.98-84.143-102.985v-1.299c13.969 7.797 30.214 12.67 47.431 13.319-28.264-18.843-46.781-51.005-46.781-87.391 0-19.492 5.197-37.36 14.294-52.954 51.655 63.675 129.3 105.258 216.365 109.807-1.624-7.797-2.599-15.918-2.599-24.04 0-57.828 46.782-104.934 104.934-104.934 30.213 0 57.502 12.67 76.67 33.137 23.715-4.548 46.456-13.32 66.599-25.34-7.798 24.366-24.366 44.833-46.132 57.827 21.117-2.273 41.584-8.122 60.426-16.243-14.292 20.791-32.161 39.308-52.628 54.253z"></path>
  </symbol>
  <symbol id="github" viewBox="0 0 496 512">
    <path d="M165.9 397.4c0 2-2.3 3.6-5.2 3.6-3.3.3-5.6-1.3-5.6-3.6 0-2 2.3-3.6 5.2-3.6 3-.3 5.6 1.3 5.6 3.6zm-31.1-4.5c-.7 2 1.3 4.3 4.3 4.9 2.6 1 5.6 0 6.2-2s-1.3-4.3-4.3-5.2c-2.6-.7-5.5.3-6.2 2.3zm44.2-1.7c-2.9.7-4.9 2.6-4.6 4.9.3 2 2.9 3.3 5.9 2.6 2.9-.7 4.9-2.6 4.6-4.6-.3-1.9-3-3.2-5.9-2.9zM244.8 8C106.1 8 0 113.3 0 252c0 110.9 69.8 205.8 169.5 239.2 12.8 2.3 17.3-5.6 17.3-12.1 0-6.2-.3-40.4-.3-61.4 0 0-70 15-84.7-29.8 0 0-11.4-29.1-27.8-36.6 0 0-22.9-15.7 1.6-15.4 0 0 24.9 2 38.6 25.8 21.9 38.6 58.6 27.5 72.9 20.9 2.3-16 8.8-27.1 16-33.7-55.9-6.2-112.3-14.3-112.3-110.5 0-27.5 7.6-41.3 23.6-58.9-2.6-6.5-11.1-33.3 2.6-67.9 20.9-6.5 69 27 69 27 20-5.6 41.5-8.5 62.8-8.5s42.8 2.9 62.8 8.5c0 0 48.1-33.6 69-27 13.7 34.7 5.2 61.4 2.6 67.9 16 17.7 25.8 31.5 25.8 58.9 0 96.5-58.9 104.2-114.8 110.5 9.2 7.9 17 22.9 17 46.4 0 33.7-.3 75.4-.3 83.6 0 6.5 4.6 14.4 17.3 12.1C428.2 457.8 496 362.9 496 252 496 113.3 383.5 8 244.8 8zM97.2 352.9c-1.3 1-1 3.3.7 5.2 1.6 1.6 3.9 2.3 5.2 1 1.3-1 1-3.3-.7-5.2-1.6-1.6-3.9-2.3-5.2-1zm-10.8-8.1c-.7 1.3.3 2.9 2.3 3.9 1.6 1 3.6.7 4.3-.7.7-1.3-.3-2.9-2.3-3.9-2-.6-3.6-.3-4.3.7zm32.4 35.6c-1.6 1.3-1 4.3 1.3 6.2 2.3 2.3 5.2 2.6 6.5 1 1.3-1.3.7-4.3-1.3-6.2-2.2-2.3-5.2-2.6-6.5-1zm-11.4-14.7c-1.6 1-1.6 3.6 0 5.9 1.6 2.3 4.3 3.3 5.6 2.3 1.6-1.3 1.6-3.9 0-6.2-1.4-2.3-4-3.3-5.6-2z"></path>
  </symbol>
  <symbol id="orcid" viewBox="0 0 512 512">
    <path d="M294.75 188.19h-45.92V342h47.47c67.62 0 83.12-51.34 83.12-76.91 0-41.64-26.54-76.9-84.67-76.9zM256 8C119 8 8 119 8 256s111 248 248 248 248-111 248-248S393 8 256 8zm-80.79 360.76h-29.84v-207.5h29.84zm-14.92-231.14a19.57 19.57 0 1 1 19.57-19.57 19.64 19.64 0 0 1-19.57 19.57zM300 369h-81V161.26h80.6c76.73 0 110.44 54.83 110.44 103.85C410 318.39 368.38 369 300 369z"></path>
  </symbol>
  <symbol id="mastodon" viewBox="0 0 448 512">
    <path d="M433 179.11c0-97.2-63.71-125.7-63.71-125.7-62.52-28.7-228.56-28.4-290.48 0 0 0-63.72 28.5-63.72 125.7 0 115.7-6.6 259.4 105.63 289.1 40.51 10.7 75.32 13 103.33 11.4 50.81-2.8 79.32-18.1 79.32-18.1l-1.7-36.9s-36.31 11.4-77.12 10.1c-40.41-1.4-83-4.4-89.63-54a102.54 102.54 0 0 1-.9-13.9c85.63 20.9 158.65 9.1 178.75 6.7 56.12-6.7 105-41.3 111.23-72.9 9.8-49.8 9-121.5 9-121.5zm-75.12 125.2h-46.63v-114.2c0-49.7-64-51.6-64 6.9v62.5h-46.33V197c0-58.5-64-56.6-64-6.9v114.2H90.19c0-122.1-5.2-147.9 18.41-175 25.9-28.9 79.82-30.8 103.83 6.1l11.6 19.5 11.6-19.5c24.11-37.1 78.12-34.8 103.83-6.1 23.71 27.3 18.4 53 18.4 175z"></path>
  </symbol>
  <symbol id="researchgate" viewBox="0 0 448 512">
    <path d="M0 32v448h448V32H0zm262.2 334.4c-6.6 3-33.2 6-50-14.2-9.2-10.6-25.3-33.3-42.2-63.6-8.9 0-14.7 0-21.4-.6v46.4c0 23.5 6 21.2 25.8 23.9v8.1c-6.9-.3-23.1-.8-35.6-.8-13.1 0-26.1.6-33.6.8v-8.1c15.5-2.9 22-1.3 22-23.9V225c0-22.6-6.4-21-22-23.9V193c25.8 1 53.1-.6 70.9-.6 31.7 0 55.9 14.4 55.9 45.6 0 21.1-16.7 42.2-39.2 47.5 13.6 24.2 30 45.6 42.2 58.9 7.2 7.8 17.2 14.7 27.2 14.7v7.3zm22.9-135c-23.3 0-32.2-15.7-32.2-32.2V167c0-12.2 8.8-30.4 34-30.4s30.4 17.9 30.4 17.9l-10.7 7.2s-5.5-12.5-19.7-12.5c-7.9 0-19.7 7.3-19.7 19.7v26.8c0 13.4 6.6 23.3 17.9 23.3 14.1 0 21.5-10.9 21.5-26.8h-17.9v-10.7h30.4c0 20.5 4.7 49.9-34 49.9zm-116.5 44.7c-9.4 0-13.6-.3-20-.8v-69.7c6.4-.6 15-.6 22.5-.6 23.3 0 37.2 12.2 37.2 34.5 0 21.9-15 36.6-39.7 36.6z"></path>
  </symbol>
  <!-- Custom -->
  <symbol id="dblp" viewBox="0 0 512 512">
    <path d="M455.4 304.3l-45.9-171.7c0 0-2.9-11.1-13.6-6.2l-105 48.8l16.1 60l20.4 76.5l0.1 1.2c1 8.8-7.7 14.8-7.7 14.8L284.8 344 l9.4 35.4l0.7 1.9c1.3 3.2 5.3 11.3 15.2 17.1l130.3 80.1c0 0 12.7 7.7 9.7-3.1L413 336.4l34.9-16.1 C447.9 320.3 458.4 315.5 455.4 304.3L455.4 304.3z M314.1 306.1l-0.2-1.2l-21.2-79.1l-25-92.7v-0.7c0 0-3-11.1-15.7-18.7 L121.7 33.6c0 0-12.7-7.7-9.7 3.1l37.3 139.2l-35 16.3c0 0-10.5 4.8-7.5 15.9l45.9 171.7c0 0 3 11.1 13.6 6.2l140-65.3 C306.2 320.9 315.9 316.3 314.1 306.1z"/>
  </symbol>
  <symbol id="gscholar" viewBox="0 0 512 512">
    <path d="M256 6C117.9 6 6 117.9 6 256s111.9 250 250 250s250-111.9 250-250S394.1 6 256 6z M210.5 96.9h193.2l-11.6 10 c0 0.5 0.2 0.9 0.2 1.4v60c6.8 3.9 11.4 11.1 11.4 19.6V256c0 12.5-10.2 22.7-22.7 22.7s-22.7-10.2-22.7-22.7v-68.2 c0-8.4 4.5-15.7 11.4-19.6v-42.1l-40.8 35c4 8 6.7 17.6 6.7 29.4c0 30.9-17.3 46.2-34.4 59.9c-5.3 5.5-11.6 11.4-11.6 20.6 c0 9.1 6.3 14.2 10.8 17.8l14.6 11.7c18.1 15.5 34.4 29.7 34.4 58.4c0 39.2-37.4 78.9-107.8 78.9c-59.4 0-88.1-28.8-88.1-59.7 c0-15 7.4-36.3 31.6-50.9c25.3-15.8 59.8-17.9 78.3-19.2c-5.8-7.5-12.4-15.3-12.4-28.4c0-6.9 2.1-11.1 4.2-16.2 c-4.5 0.5-9.1 0.9-13.2 0.9c-43.2 0-67.8-32.7-68.1-65.1h-77L210.5 96.9z M247.7 133.7c-10.6 0-22 5.3-28.6 13.9 c-6.9 8.6-9.1 19.9-9.1 30.7c0 28 16.2 74.3 51.3 74.3c10.3 0 21.4-5 27.9-11.7c9.3-9.7 10.2-23 10.2-30.3 C299.4 180.4 281.8 133.7 247.7 133.7z M267.8 319.7c-3.6 0-25.8 0.8-42.9 6.7c-9.1 3.4-35.2 13.3-35.2 43s28.2 50.9 72 50.9 c39.4 0 60.2-19.3 60.2-45.1c0-21.2-13.4-32.5-44.5-55C274.1 319.8 272 319.7 267.8 319.7z"/>
  </symbol>
  <symbol id="academia" viewBox="0 0 24 28">
    <path d="M24 24v1.2H13.2V24c1.8 0 2.7-0.4 2.7-1.4c0-0.3-0.1-0.8-0.3-1.2l-1.2-3H6c-0.7 1.8-1.2 3.1-1.3 3.3C3.9 23.6 5 23.8 6.9 24 c0 0 0 0 0 0c0 0 0 0 0 0l0 1.2H0V24c0.9-0.2 1.6-0.3 1.9-1.2l7-17.5l-1-2.5h5.9l8.3 20c0.1 0.4 0.4 0.7 0.7 0.8 C23.1 23.8 23.5 23.9 24 24z M13.9 15.8l-3.2-8.3c-0.5 1.4-1.9 5.1-3.1 8.3H13.9z"/>
  </symbol>
  <symbol id="field-aise" viewBox="0 0 512 512">
    <path d="M180.3,306.7c7.2,0,14.3-0.6,21.4-1.8c6.7,6.3,14.7,10.9,23.6,13.5c7.1,2.2,14.4,3.4,21.8,3.4c2.9,0,5.8-0.3,8.6-0.7C299,341.6,305,363.8,305,364c0.5,2.5,2.7,4.3,5.3,4.3h28.5c3,0,5.4-2.4,5.4-5.4c0-0.6-0.1-1.3-0.3-1.9c-3.6-10-6-20.5-7.1-31.1c9.6-1.9,18.2-7,24.5-14.5c1.7-2.2,3.1-4.5,4.2-7c9.5-1.8,18.2-6.6,24.7-13.8c8.7-9.8,12.5-23.4,11.5-40.4c-1.2-18.8-7.5-32.3-18.7-40c-3.4-19-14-35.9-29.7-47.1c-13.8-10.2-31.1-14.4-48.1-11.7c-8.2-6.1-17.8-9.8-28-10.9c-18-2.4-40.4,1-49.7,9.8c-7.4-2.5-15.2-3.4-23-2.8c-20.8,1.4-41.9,12.5-50.2,26.4c-1.8,3.1-3.2,6.3-4.2,9.8c-15,5.1-27.1,16.4-33.3,31c-8.7,19.1-8.8,41-0.4,60.2C127.6,300.5,156.6,306.7,180.3,306.7z M257,187.9c0.9-5.5,6.1-9.1,11.6-8.2c5.5,0.9,9.1,6.1,8.2,11.6c-0.3,1.7-6.6,41.5,25.8,49.2c32.6,7.7,45,2.6,48.8,0.1c1.8-1,3.1-2.9,3.4-4.9c1-5.5,6.2-9.1,11.6-8.1c5.3,0.9,8.9,5.9,8.2,11.3v-0.2c-1.2,7.6-5.6,14.3-12,18.4c-9.1,5.4-19.5,8-30,7.4c-0.4,0-0.9,0-1.3,0c2.6,6.5,3.4,13.5,2.3,20.4c-3.3,15.2-15.1,27.2-30.3,30.8c-5.3,1.6-10.9-1.3-12.5-6.6c-1.6-5.3,1.3-10.9,6.6-12.5l0,0c7.9-1.5,14.3-7.3,16.4-15.1c0.7-7.8-2.7-15.4-9-20.1c-2.2-0.5-4.4-0.9-6.7-1.4C257.3,250.4,253.4,208.6,257,187.9z M154.3,205.1c17.9-11,40.9-8.8,56.4,5.4c15.9,13.7,26.9,40.8,9.8,75.7c-2.3,5-8.3,7.2-13.3,4.9c-5-2.3-7.2-8.3-4.9-13.3c0.1-0.1,0.1-0.3,0.2-0.4c10.2-20.9,8.4-40.3-4.9-51.7c-8.6-8.3-21.5-10-31.9-4.1c-4.6,3.2-10.8,2-14-2.5c-0.6-0.9-1.1-1.8-1.4-2.8C149.2,212.1,150.7,207.5,154.3,205.1z M483.6,256c0-13.2-1.3-26.3-3.9-39.2c-2.1-10.5,2.7-21.2,12.2-27.2l7.3-4.6c12.6-8,16.4-23.6,8.8-35.9l-26.4-42.3c-7.6-12.2-23.9-16.9-37.6-10.9l-8.2,3.6c-10.3,4.6-22.6,3.1-31.3-3.9c-21.5-17.3-46.4-30.6-73.2-39.3c-10.8-3.5-18.3-12.7-19.2-23.3l-0.7-8.2C310.3,10.8,297.7,0,282.5,0h-53c-15.1,0-27.8,10.8-28.9,24.9l-0.7,8.1c-0.9,10.6-8.4,19.8-19.2,23.3C153.8,65,129,78.4,107.5,95.6c-8.7,6.9-20.9,8.4-31.3,3.9l-8.3-3.7c-13.7-6-30-1.3-37.6,10.9L3.9,149.1c-7.6,12.2-3.8,27.9,8.7,35.9l7.2,4.6c9.5,6.1,14.2,16.8,12.1,27.4c-5.2,25.8-5.2,52.3,0,78.1c2.1,10.5-2.6,21.3-12.1,27.3l-7.3,4.7c-12.5,8-16.3,23.6-8.7,35.8l26.4,42.4c7.6,12.2,24,16.9,37.6,10.9l8.2-3.6c10.3-4.6,22.6-3.1,31.3,3.8c21.5,17.3,46.4,30.6,73.2,39.3c10.8,3.5,18.3,12.7,19.2,23.3l0.7,8.2c1.2,14,13.8,24.9,28.9,24.9h53c15.2,0,27.8-10.8,28.9-24.9l0.7-8.2c0.9-10.6,8.4-19.8,19.2-23.3c26.8-8.7,51.6-22.1,73.2-39.3c8.7-7,21-8.4,31.3-3.8l8.2,3.6c13.7,6.1,30,1.3,37.6-10.8l26.5-42.4c7.6-12.2,3.8-27.8-8.7-35.8l-7.3-4.7c-9.5-6.1-14.2-16.7-12.1-27.2C482.5,282.2,483.7,269.1,483.6,256z M426,256c0,88.4-76.1,160-170,160S86,344.4,86,256S162.1,96,256,96S426,167.6,426,256z"/>
  </symbol>
  <symbol id="field-seai" viewBox="0 0 512 512">
    <path d="m 269.11031,59.879746 c -24.99117,0.625655 -49.92954,6.882281 -62.12552,18.373286 -12.87745,-4.323807 -26.50652,-6.016846 -40.04195,-4.888893 -36.37643,2.537894 -73.128573,21.901467 -87.509964,45.964441 -3.195856,5.35777 -5.63903,11.09117 -7.236963,17.01292 -26.130875,8.92962 -47.280759,28.67029 -58.090295,54.14319 -15.1333468,33.36857 -15.3206057,71.52993 -0.65724,105.0865 19.081181,37.88036 69.838383,48.59705 111.102602,48.59705 12.50148,0 25.00223,-1.03469 37.3157,-3.1026 11.65551,10.99753 25.75604,19.0812 41.07738,23.49901 12.31347,3.85384 25.19096,5.82812 38.0684,6.01613 5.07579,0 10.05759,-0.47036 15.03938,-1.31632 75.57274,35.71847 85.91238,74.53887 86.00638,74.72687 0.93997,4.32381 4.79271,7.42604 9.21052,7.42604 h 49.72427 c 5.16979,0 9.39961,-4.22982 9.39961,-9.3996 0,-1.12795 -0.18762,-2.25591 -0.56362,-3.28985 -6.39171,-17.48326 -10.52682,-35.71964 -12.40674,-54.23684 16.73129,-3.19586 31.76922,-12.1244 42.67275,-25.18984 2.91388,-3.75985 5.35851,-7.80204 7.33242,-12.12586 16.63728,-3.10186 31.77142,-11.46716 43.05092,-24.06262 15.32136,-17.10726 21.99509,-40.88794 20.20916,-70.59067 -2.06792,-32.8986 -13.0662,-56.30474 -32.71137,-69.74617 -5.92174,-33.08658 -24.53298,-62.6014 -51.69781,-82.24655 C 402.21536,82.670134 371.94931,75.339167 342.43457,80.132955 328.14719,69.511407 311.32149,63.02457 293.65025,61.144656 285.77809,60.0872 277.4407,59.671187 269.11031,59.879746 Z m 5.90963,29.68813 c 0,-5.530127 11.06254,0.521381 16.5613,1.343847 17.76524,2.443895 33.50716,7.386855 39.5229,35.115667 0.93995,4.32381 17.72724,11.73756 22.14504,11.73756 0.65798,0 1.31557,-0.0932 1.97355,-0.18726 5.07579,-1.12795 8.36675,-6.11011 7.2388,-11.18589 v -0.0936 c -1.31595,-5.82775 -2.49398,-13.62439 -5.50186,-18.79416 20.77311,-0.37598 32.45329,8.26698 49.18457,20.58045 19.55116,14.0994 27.46496,18.04643 34.51465,41.16943 -29.97383,-5.80958 -23.46798,26.70188 19.94682,32.17138 15.13336,9.86958 16.14187,27.68457 17.8338,54.94341 2.44389,48.8779 -3.4389,48.64557 -19.7002,54.56732 1.12795,-10.43356 3.98485,-10.27709 2.01093,-20.52265 -0.93995,-5.16979 -14.45002,-12.86478 -19.61981,-11.92481 -5.16977,0.93995 -13.94449,12.29613 -13.00453,17.46589 3.75985,20.9611 -1.12144,30.05293 -10.23906,41.89642 -9.77557,11.09153 -24.38926,15.89038 -39.05262,17.39432 -4.79379,0.28199 -8.55219,4.13583 -8.83417,8.92962 0.0939,19.26918 3.2884,38.35115 9.30414,56.68036 l -14.98847,-1.07787 c -5.92174,-13.44142 -17.59468,-33.25497 -69.95043,-61.82974 0.56397,-0.28199 12.55086,-9.17364 6.58706,-20.87924 l -10.46807,2.49494 c -23.46704,6.32369 -52.53558,1.91567 -78.76046,-5.88598 -20.20911,-5.45178 -28.65357,-24.37706 -50.49075,-46.60812 L 133.56415,275.5625 c -15.73546,7.05772 13.73351,30.62907 15.04945,32.603 -39.00832,4.41779 -85.999783,8.19802 -103.859015,-27.23848 -12.125482,-28.48076 -12.827375,-45.63082 -0.137916,-73.82963 7.519675,-17.76521 13.697989,-29.00737 30.993244,-37.561 16.903781,22.03176 20.116973,-12.27979 33.394057,-31.71517 12.4121,-18.16921 42.48861,-34.66041 72.65968,-36.7521 14.57105,-1.01017 22.23776,-8.152642 39.53302,13.37244 3.19586,4.13582 15.58635,4.88815 19.72217,1.78629 4.13582,-3.19587 4.88632,-9.11909 1.78446,-13.25491 -0.094,-0.094 -0.1869,-0.18653 -0.28089,-0.37453 -4.6058,-5.639746 0.81518,-1.90453 -5.20057,-5.946367 15.43886,-6.344722 37.7981,-5.584071 37.7981,-7.084137 z m -2.60507,32.376804 c -6.2057,0 -11.42411,4.43837 -11.87619,10.23308 l -0.28823,3.33025 c -0.36987,4.3563 -3.45203,8.13744 -7.89052,9.57585 -11.01407,3.57546 -21.24835,9.08135 -30.08425,16.15007 -3.57547,2.83571 -8.58793,3.45209 -12.86204,1.60271 l -3.41104,-1.5201 c -5.63031,-2.46584 -12.32904,-0.53435 -15.45242,4.4795 l -10.84995,17.42599 c -3.12339,5.01386 -1.56273,11.46519 3.57442,14.75297 l 2.95942,1.89094 c 3.90424,2.50694 5.83638,6.90486 4.97334,11.26118 -2.13706,10.60307 -2.13706,21.49325 0,32.09633 0.86304,4.31523 -1.0691,8.75311 -4.97334,11.21896 l -2.99981,1.93132 c -5.13715,3.28779 -6.69964,9.70054 -3.57625,14.71442 l 10.84994,17.42414 c 3.12337,5.01388 9.8632,6.94536 15.45243,4.47951 l 3.37064,-1.47971 c 4.23301,-1.89046 9.28843,-1.2734 12.86387,1.56233 8.83591,7.1098 19.06835,12.57644 30.08242,16.15189 4.4385,1.4384 7.52064,5.21955 7.89053,9.57585 l 0.28823,3.3688 c 0.49315,5.75362 5.67048,10.2331 11.87617,10.2331 h 21.78249 c 6.24676,0 11.42411,-4.43839 11.87618,-10.2331 l 0.28823,-3.3688 c 0.36987,-4.3563 3.45203,-8.13745 7.89053,-9.57585 11.01407,-3.57545 21.20725,-9.08319 30.08425,-16.15189 3.57545,-2.87683 8.62902,-3.45279 12.86203,-1.56233 l 3.37065,1.47971 c 5.63032,2.50693 12.32905,0.53548 15.45242,-4.43727 l 10.89033,-17.426 c 3.1234,-5.01387 1.56273,-11.42479 -3.57441,-14.71259 l -2.9998,-1.93131 c -3.90423,-2.50694 -5.83639,-6.86335 -4.97335,-11.17856 1.06853,-5.38374 1.60342,-10.76817 1.56233,-16.1519 0,-5.42483 -0.5342,-10.80814 -1.60272,-16.10967 -0.86305,-4.31522 1.10951,-8.71272 5.01374,-11.17856 l 2.9998,-1.89094 c 5.17824,-3.28778 6.74002,-9.69801 3.61663,-14.75297 l -10.84992,-17.3856 c -3.1234,-5.01386 -9.82211,-6.94534 -15.45245,-4.47951 l -3.37064,1.47972 c -4.23302,1.89048 -9.28841,1.2741 -12.86386,-1.60271 -8.83591,-7.10981 -19.06835,-12.57461 -30.08242,-16.15007 -4.43849,-1.43841 -7.52066,-5.21954 -7.89053,-9.57584 l -0.28823,-3.37064 c -0.49317,-5.75361 -5.67049,-10.1927 -11.87619,-10.1927 z m 10.50294,60.64215 c 24.55639,4.9e-4 44.46296,20.3139 44.46272,45.37144 2.5e-4,25.05755 -19.90632,45.37098 -44.46272,45.37147 -24.55711,5.4e-4 -44.46479,-20.31319 -44.46454,-45.37147 -2.4e-4,-25.05827 19.90744,-45.37198 44.46454,-45.37144 z" />
  </symbol>
  <symbol id="field-arch" viewBox="0 0 512 512">
    <path class="st2" d="M358.8,0H99C75.3,0,56,19.3,56,43v426c0,23.7,19.3,43,43,43h314c23.7,0,43-19.3,43-43V97.2c0-11.4-4.5-22.3-12.6-30.4l-54.2-54.2C381.1,4.5,370.2,0,358.8,0z M379.4,312.8h-37.9v105.5h-21.1h-8.9h-66v25.9c0,18.1-30.8,32.7-68.7,32.7c-38,0-68.7-14.6-68.7-32.7V343.5c0-18.1,30.8-32.7,68.7-32.7c38,0,68.7,14.6,68.7,32.7v44.7h66v-75.5h-37.9l-52.9-48.5l52.9-48.5h37.9v-80h-54.1l-36,62.3h-89.2l-44.6-77.3l44.6-77.3h89.2l36,62.3h54.1h30v30v80h37.9l52.9,48.5L379.4,312.8z"/>
  </symbol>
  <symbol id="field-cloud" viewBox="0 0 512 512">
    <path style="fill-rule:evenodd;" d="M512,333.6L512,333.6c0,76.9-62.4,139.3-139.3,139.3h0H139.3h0h-13.5v-0.7C55.2,465.4,0,405.9,0,333.6v0C0,261.2,55.2,201.8,125.7,195v-0.7h0.1c-0.1-1.7-0.1-3.3-0.1-5v0c0-82.9,67.2-150.2,150.2-150.2h2.1c82.9,0,150.2,67.2,150.2,150.2v0c0,5.5-0.3,10.8-0.9,16.1C477.1,226.7,512,276.1,512,333.6z M387.1,202.7v64.5v129.9c0,7.1-5.8,12.9-12.9,12.9H179.8c-7.1,0-12.9-5.8-12.9-12.9V267.2v-64.5c0-7.1,5.8-12.9,12.9-12.9h194.4C381.4,189.8,387.1,195.6,387.1,202.7z M231.4,230.7c0,7.1,5.8,12.9,12.9,12.9s12.9-5.8,12.9-12.9s-5.8-12.9-12.9-12.9S231.4,223.5,231.4,230.7z M197,230.7c0,7.1,5.8,12.9,12.9,12.9c7.1,0,12.9-5.8,12.9-12.9s-5.8-12.9-12.9-12.9C202.8,217.8,197,223.5,197,230.7z M365.8,267.2H188.6v121.3h177.2V267.2z"/>
  </symbol>
  <symbol id="field-devtools" viewBox="0 0 512 512">
    <path d="M236.3,247.6c-0.1-2.2-1-4.2-2.5-5.8l-69-69c-3.5-3.5-9.3-3.5-12.9,0L139,185.6c-3.5,3.5-3.5,9.3,0,12.9l53.5,53.5L139,305.6c-3.5,3.5-3.5,9.3,0,12.9l12.9,12.9c3.5,3.5,9.3,3.5,12.9,0l69-69c1.7-1.7,2.5-3.8,2.6-5.9h0.1v-8.7L236.3,247.6L236.3,247.6L236.3,247.6z"/>
    <path d="M369.5,341.9H240.2c-3.4,0-6.2-2.7-6.2-6.2v-24c0-3.4,2.7-6.2,6.2-6.2h129.2c3.4,0,6.2,2.7,6.2,6.2v24C375.6,339.2,372.9,341.9,369.5,341.9z"/>
    <path d="M483.6,256c0-13.2-1.3-26.3-3.9-39.2c-2.1-10.5,2.7-21.2,12.2-27.2l7.3-4.6c12.6-8,16.4-23.6,8.8-35.9l-26.4-42.3c-7.6-12.2-23.9-16.9-37.6-10.9l-8.2,3.6c-10.3,4.6-22.6,3.1-31.3-3.9c-21.5-17.3-46.4-30.6-73.2-39.3c-10.8-3.5-18.3-12.7-19.2-23.3l-0.7-8.2C310.3,10.8,297.7,0,282.5,0h-53c-15.1,0-27.8,10.8-28.9,24.9l-0.7,8.1c-0.9,10.6-8.4,19.8-19.2,23.3C153.8,65,129,78.4,107.5,95.6c-8.7,6.9-20.9,8.4-31.3,3.9l-8.3-3.7c-13.7-6-30-1.3-37.6,10.9L3.9,149.1c-7.6,12.2-3.8,27.9,8.7,35.9l7.2,4.6c9.5,6.1,14.2,16.8,12.1,27.4c-5.2,25.8-5.2,52.3,0,78.1c2.1,10.5-2.6,21.3-12.1,27.3l-7.3,4.7c-12.5,8-16.3,23.6-8.7,35.8l26.4,42.4c7.6,12.2,24,16.9,37.6,10.9l8.2-3.6c10.3-4.6,22.6-3.1,31.3,3.8c21.5,17.3,46.4,30.6,73.2,39.3c10.8,3.5,18.3,12.7,19.2,23.3l0.7,8.2c1.2,14,13.8,24.9,28.9,24.9h53c15.2,0,27.8-10.8,28.9-24.9l0.7-8.2c0.9-10.6,8.4-19.8,19.2-23.3c26.8-8.7,51.6-22.1,73.2-39.3c8.7-7,21-8.4,31.3-3.8l8.2,3.6c13.7,6.1,30,1.3,37.6-10.8l26.5-42.4c7.6-12.2,3.8-27.8-8.7-35.8l-7.3-4.7c-9.5-6.1-14.2-16.7-12.1-27.2C482.5,282.2,483.7,269.1,483.6,256z M426,256c0,88.4-76.1,160-170,160S86,344.4,86,256S162.1,96,256,96S426,167.6,426,256z"/>
  </symbol>
  <symbol id="field-dsl" viewBox="0 0 512 512">
    <path style="fill-rule:evenodd;" d="M358.8,0H99C75.3,0,56,19.3,56,43v426c0,23.7,19.3,43,43,43h314c23.7,0,43-19.3,43-43V97.2c0-11.4-4.5-22.3-12.6-30.4l-54.2-54.2C381.1,4.5,370.2,0,358.8,0z M206.4,199l-13.2-13.2c-3.7-3.7-9.6-3.7-13.2,0L108.7,257c-1.6,1.6-2.4,3.8-2.6,5.9H106v8.8h0.1c0.1,2.2,1,4.4,2.6,6.1l71.2,71.2c3.7,3.7,9.6,3.7,13.2,0l13.2-13.2c3.7-3.7,3.7-9.6,0-13.2l-55.1-55.2l55.1-55.1C210,208.6,210,202.7,206.4,199z M405.9,262.9c-0.2-2.1-1-4.3-2.6-5.9l-71.2-71.2c-3.7-3.7-9.6-3.7-13.2,0L305.6,199c-3.7,3.7-3.7,9.6,0,13.2l55.1,55.1l-55.1,55.2c-3.7,3.7-3.7,9.6,0,13.2l13.2,13.2c3.7,3.7,9.6,3.7,13.2,0l71.2-71.2c1.7-1.7,2.5-3.9,2.6-6.1h0.1L405.9,262.9L405.9,262.9L405.9,262.9z M284.1,183h-18.8c-4.3,0-8,2.9-9.1,7.1l-37.5,150c-0.7,2.8-0.1,5.8,1.7,8c1.8,2.3,4.5,3.6,7.4,3.6h18.8c4.3,0,8-2.9,9.1-7.1l37.5-150c0.7-2.8,0.1-5.8-1.7-8C289.7,184.3,287,183,284.1,183z"/>
  </symbol>
  <symbol id="field-ese" viewBox="0 0 512 512">
    <path d="M483.6,256c0-13.2-1.3-26.3-3.9-39.2c-2.1-10.5,2.7-21.2,12.2-27.2l7.3-4.6c12.6-8,16.4-23.6,8.8-35.9l-26.4-42.3c-7.6-12.2-23.9-16.9-37.6-10.9l-8.2,3.6c-10.3,4.6-22.6,3.1-31.3-3.9c-21.5-17.3-46.4-30.6-73.2-39.3c-10.8-3.5-18.3-12.7-19.2-23.3l-0.7-8.2C310.3,10.8,297.7,0,282.5,0h-53c-15.1,0-27.8,10.8-28.9,24.9l-0.7,8.1c-0.9,10.6-8.4,19.8-19.2,23.3C153.8,65,129,78.4,107.5,95.6c-8.7,6.9-20.9,8.4-31.3,3.9l-8.3-3.7c-13.7-6-30-1.3-37.6,10.9L3.9,149.1c-7.6,12.2-3.8,27.9,8.7,35.9l7.2,4.6c9.5,6.1,14.2,16.8,12.1,27.4c-5.2,25.8-5.2,52.3,0,78.1c2.1,10.5-2.6,21.3-12.1,27.3l-7.3,4.7c-12.5,8-16.3,23.6-8.7,35.8l26.4,42.4c7.6,12.2,24,16.9,37.6,10.9l8.2-3.6c10.3-4.6,22.6-3.1,31.3,3.8c21.5,17.3,46.4,30.6,73.2,39.3c10.8,3.5,18.3,12.7,19.2,23.3l0.7,8.2c1.2,14,13.8,24.9,28.9,24.9h53c15.2,0,27.8-10.8,28.9-24.9l0.7-8.2c0.9-10.6,8.4-19.8,19.2-23.3c26.8-8.7,51.6-22.1,73.2-39.3c8.7-7,21-8.4,31.3-3.8l8.2,3.6c13.7,6.1,30,1.3,37.6-10.8l26.5-42.4c7.6-12.2,3.8-27.8-8.7-35.8l-7.3-4.7c-9.5-6.1-14.2-16.7-12.1-27.2C482.5,282.2,483.7,269.1,483.6,256z M426,256c0,88.4-76.1,160-170,160S86,344.4,86,256S162.1,96,256,96S426,167.6,426,256z M339.3,215.9c16.2-0.7,29-14,29-30.3c0-16.8-13.6-30.3-30.3-30.3c-16.8,0-30.3,13.6-30.3,30.3c0,7.5,2.7,14.3,7.2,19.6l-21.1,36.5c-1.6-0.2-3.2-0.4-4.8-0.4c-5.8,0-11.2,1.6-15.8,4.4l-25.7-17.2c-0.9-16-14.1-28.7-30.3-28.7c-16.8,0-30.3,13.6-30.3,30.3c0,5.2,1.3,10.2,3.7,14.5l-28.6,38.2c-1.8-0.3-3.6-0.5-5.4-0.5c-16.8,0-30.3,13.6-30.3,30.3c0,16.8,13.6,30.3,30.3,30.3c16.8,0,30.3-13.6,30.3-30.3c0-5.1-1.3-10-3.5-14.2l28.7-38.4c1.7,0.3,3.4,0.4,5.1,0.4c7.5,0,14.4-2.7,19.6-7.2l22,14.7c-0.1,1.2-0.2,2.4-0.2,3.6c0,16.8,13.6,30.3,30.3,30.3c16.8,0,30.3-13.6,30.3-30.3c0-5.3-1.4-10.3-3.8-14.7L339.3,215.9z M195.4,340.4H239v-54.1h-43.6V340.4z M267.2,340.4h43.6v-31h-43.6V340.4z M330.8,241.4v99h43.6v-99H330.8z"/>
  </symbol>
  <symbol id="field-human" viewBox="0 0 512 512">
    <path d="M353.3,239.6c26.1-25.4,42.2-60.8,42.2-100v0C395.6,62.5,333.1,0,256,0h0c-77.1,0-139.6,62.5-139.6,139.6v0c0,39.2,16.2,74.7,42.2,100C67,266.1,0,350.7,0,450.9V512h512v-61.1C512,350.7,445,266.1,353.3,239.6z"/>
  </symbol>
  <symbol id="field-mntevl" viewBox="0 0 512 512">
    <path d="M483.6,256c0-13.2-1.3-26.3-3.9-39.2c-2.1-10.5,2.7-21.2,12.2-27.2l7.3-4.6c12.6-8,16.4-23.6,8.8-35.9l-26.4-42.3c-7.6-12.2-23.9-16.9-37.6-10.9l-8.2,3.6c-10.3,4.6-22.6,3.1-31.3-3.9c-21.5-17.3-46.4-30.6-73.2-39.3c-10.8-3.5-18.3-12.7-19.2-23.3l-0.7-8.2C310.3,10.8,297.7,0,282.5,0h-53c-15.1,0-27.8,10.8-28.9,24.9l-0.7,8.1c-0.9,10.6-8.4,19.8-19.2,23.3C153.8,65,129,78.4,107.5,95.6c-8.7,6.9-20.9,8.4-31.3,3.9l-8.3-3.7c-13.7-6-30-1.3-37.6,10.9L3.9,149.1c-7.6,12.2-3.8,27.9,8.7,35.9l7.2,4.6c9.5,6.1,14.2,16.8,12.1,27.4c-5.2,25.8-5.2,52.3,0,78.1c2.1,10.5-2.6,21.3-12.1,27.3l-7.3,4.7c-12.5,8-16.3,23.6-8.7,35.8l26.4,42.4c7.6,12.2,24,16.9,37.6,10.9l8.2-3.6c10.3-4.6,22.6-3.1,31.3,3.8c21.5,17.3,46.4,30.6,73.2,39.3c10.8,3.5,18.3,12.7,19.2,23.3l0.7,8.2c1.2,14,13.8,24.9,28.9,24.9h53c15.2,0,27.8-10.8,28.9-24.9l0.7-8.2c0.9-10.6,8.4-19.8,19.2-23.3c26.8-8.7,51.6-22.1,73.2-39.3c8.7-7,21-8.4,31.3-3.8l8.2,3.6c13.7,6.1,30,1.3,37.6-10.8l26.5-42.4c7.6-12.2,3.8-27.8-8.7-35.8l-7.3-4.7c-9.5-6.1-14.2-16.7-12.1-27.2C482.5,282.2,483.7,269.1,483.6,256z M426,256c0,88.4-76.1,160-170,160S86,344.4,86,256S162.1,96,256,96S426,167.6,426,256z M353.2,145.9H158.8c-7.1,0-12.9,5.8-12.9,12.9v64.5v129.9c0,7.1,5.8,12.9,12.9,12.9h194.4c7.1,0,12.9-5.8,12.9-12.9V223.3v-64.5C366.1,151.6,360.4,145.9,353.2,145.9z M223.3,173.8c7.1,0,12.9,5.8,12.9,12.9s-5.8,12.9-12.9,12.9s-12.9-5.8-12.9-12.9S216.2,173.8,223.3,173.8z M188.9,173.8c7.1,0,12.9,5.8,12.9,12.9s-5.8,12.9-12.9,12.9s-12.9-5.8-12.9-12.9S181.8,173.8,188.9,173.8z M344.8,344.6H167.6V223.3h177.2V344.6z"/>
  </symbol>
  <symbol id="field-msr" viewBox="0 0 512 512">
    <path style="fill-rule:evenodd;" d="M126.1,10.5c-1.3,5.6,1.4,12,6.3,15c50.1,31,90,60.9,125,93.6L4,362.2c-5.3,5.1-5.4,14.5-0.2,19.7l23,23.1c5.2,5.2,14.6,5.2,19.8-0.1L292,154.3c27.4,26.6,74.1,95.1,93.5,125.4c3.4,5.5,11.1,8,17.1,5.5c6-2.5,9.7-9.6,8.2-15.9c-12.4-54.3-29.8-107.7-78-156.4l5.8-6c5-5.1,5-14.3-0.1-19.4l-13.8-13.9c-6.8-5.5-13.2-4.3-19.5-0.2l-6.7,6.3c-47.2-45.2-96.9-66.7-155.9-79.5C135.4-1.3,127.6,4.7,126.1,10.5L126.1,10.5z M495.9,512H253.5c-8.9,0-16.1-7.2-16.1-16.1V334H512v162C512,504.8,504.8,512,495.9,512z M485.5,334H264.5v151.2h220.9V334z M512,334H237.4v-80.4c0-8.9,7.2-16.1,16.1-16.1h242.4c8.9,0,16.1,7.2,16.1,16.1V334z M291.1,272.3c8.9,0,16.1,7.2,16.1,16.1c0,8.9-7.2,16.1-16.1,16.1s-16.1-7.2-16.1-16.1C275,279.5,282.1,272.3,291.1,272.3z M334,272.3c8.9,0,16.1,7.2,16.1,16.1c0,8.9-7.2,16.1-16.1,16.1s-16.1-7.2-16.1-16.1C317.9,279.5,325.1,272.3,334,272.3z"/>
  </symbol>
  <symbol id="field-oss" viewBox="0 0 512 512">
    <path d="M287.8,347.5c45.8-17.6,68.7-69,51.1-114.8c-17.6-45.8-69-68.7-114.8-51.1c-45.8,17.6-68.7,69-51.1,114.8c9,23.5,27.6,42.1,51.1,51.1l-59.9,156C32.3,452.9-33.6,304.8,17.1,172.8S215.7-25.1,347.7,25.5c132,50.7,197.9,198.7,147.2,330.7c-26,67.7-79.5,121.3-147.2,147.3L287.8,347.5"/>
  </symbol>
  <symbol id="field-sustsw" viewBox="0 0 512 512">
    <path style="fill-rule:evenodd;" d="M482,0H30C13.4,0,0,13.4,0,30v150v302c0,16.6,13.4,30,30,30h452c16.6,0,30-13.4,30-30V180V30C512,13.4,498.6,0,482,0z M180,65c16.6,0,30,13.4,30,30s-13.4,30-30,30s-30-13.4-30-30S163.4,65,180,65z M100,65c16.6,0,30,13.4,30,30s-13.4,30-30,30s-30-13.4-30-30S83.4,65,100,65z M462.5,462h-412V180h412V462z"/>
    <path style="fill-rule:evenodd;" d="M164.9,402.2c35.6,33.6,110-0.8,132.5-16.4c49.8-34.7,88.3-105.5,109.1-130.1c1.1-1.3,1.4-3,0.9-4.8s-1.7-3.1-3.3-3.7c-124.7-48.4-258.1-33.6-273.9,96.4c-1.2,12.8,1.4,22.3,9,15.9c36.8-53.3,107.1-96.3,166.2-101c0.8-0.1,1.6,0.5,1.8,1.3c0.3,0.8-0.1,1.6-0.8,1.9c-22.1,8.5-77.9,32.8-121.3,75c-12.6,12.2-21.5,27.6-32.9,41c-5.9,7-11.6,15.9-16.3,23.8c-9.7,16,10.8,26.2,20,12.2C159.2,409.7,162,406.2,164.9,402.2L164.9,402.2z"/>
  </symbol>
  <symbol id="field-techdebt" viewBox="0 0 512 512">
    <path style="fill-rule:evenodd;" d="M482,0H30C13.5,0,0,13.5,0,30v150v302c0,16.5,13.5,30,30,30h452c16.5,0,30-13.5,30-30V180V30C512,13.3,498.7,0,482,0z M180,64.9c16.5,0,30,13.5,30,30s-13.5,30-30,30s-30-13.5-30-30S163.5,64.9,180,64.9z M100,64.9c16.5,0,30,13.5,30,30s-13.5,30-30,30s-30-13.5-30-30S83.5,64.9,100,64.9z M462.5,462h-412V180h412V462z M299.9,0h53.9l-5.7,42.2c-1.6,12,7.7,22.7,19.8,22.7h11.7c13.2,0,22.8,12.5,19.3,25.3L374.4,180h-45.1l8.8-56c1.6-10.4-5.1-20.3-15.4-22.6l-12.1-2.7c-9.6-2.2-16.2-10.9-15.6-20.8L299.9,0z M208.8,238.5c10.5-10.3,17.3-15.6,36.3-15.8c-0.7-7.5,0.5-16.8,10-16.9c13.9-0.9,19.7,1.6,18.5,16.7c30.8-2.7,69.1,44.3,40.6,49.6c-5.9,0.6-13-0.6-14.7-7.3c-5.1-12.2-9.9-18.6-25.9-18.8v57.9c21.9,5.5,29.8,10.7,37.6,15.5c30.4,17.2,21.8,70-5.4,83.4c-9.1,5.3-15.1,8.7-32.2,10.4c0,16.6,2.9,26.5-18.5,24.7c-12.8,0-9.7-16.4-10-24.7c-27.5-1.6-38.1-10.3-48-26.2c-4.7-7.9-15.3-33.2,2.5-34.7c6.4-0.7,14.5,0.9,15.4,8.5c4,18.8,7.3,29,30,30.1l0.1-66.3C199,318.9,174.7,272.1,208.8,238.5z M227.9,291.5c6.2,4.7,6.6,8.1,17.2,9.9v-55.8c-12.5,0.4-11.9,1.2-18.6,6.2C216.2,259.4,215.3,282.2,227.9,291.5z M300,378.7c7.7-12.6,7-35.3-6.2-43.8c-5-3.2-8.4-4.3-20.2-7.2l-0.1,63.9C289.5,390.9,293.8,388.6,300,378.7z"/>
  </symbol>
</svg>
